<?xml version="1.0" encoding="UTF-8" standalone="no"?>
<svg
   viewBox="0 0 16 16"
   width="16"
   height="16"
   version="1.1"
   id="svg42"
   sodipodi:docname="store.svg"
   inkscape:version="1.1.2 (0a00cf5339, 2022-02-04)"
   xmlns:inkscape="http://www.inkscape.org/namespaces/inkscape"
   xmlns:sodipodi="http://sodipodi.sourceforge.net/DTD/sodipodi-0.dtd"
   xmlns="http://www.w3.org/2000/svg"
   xmlns:svg="http://www.w3.org/2000/svg"
   xmlns:rdf="http://www.w3.org/1999/02/22-rdf-syntax-ns#"
   xmlns:cc="http://creativecommons.org/ns#"
   xmlns:dc="http://purl.org/dc/elements/1.1/">
  <metadata
     id="metadata48">
    <rdf:RDF>
      <cc:Work
         rdf:about="">
        <dc:format>image/svg+xml</dc:format>
        <dc:type
           rdf:resource="http://purl.org/dc/dcmitype/StillImage" />
      </cc:Work>
    </rdf:RDF>
  </metadata>
  <defs
     id="defs46">
    <filter
       style="color-interpolation-filters:sRGB;"
       inkscape:label="Drop Shadow"
       id="filter65"
       x="-0.03"
       y="-0.060000001"
       width="1.06"
       height="1.17">
      <feFlood
         flood-opacity="0.501961"
         flood-color="rgb(0,0,0)"
         result="flood"
         id="feFlood55" />
      <feComposite
         in="flood"
         in2="SourceGraphic"
         operator="in"
         result="composite1"
         id="feComposite57" />
      <feGaussianBlur
         in="composite1"
         stdDeviation="0.1"
         result="blur"
         id="feGaussianBlur59" />
      <feOffset
         dx="0"
         dy="0.2"
         result="offset"
         id="feOffset61" />
      <feComposite
         in="SourceGraphic"
         in2="offset"
         operator="over"
         result="composite2"
         id="feComposite63" />
    </filter>
    <filter
       style="color-interpolation-filters:sRGB;"
       inkscape:label="Drop Shadow"
       id="filter155"
       x="-0.075"
       y="-0.3"
       width="1.15"
       height="1.54">
      <feFlood
         flood-opacity="0.25098"
         flood-color="rgb(0,0,0)"
         result="flood"
         id="feFlood145" />
      <feComposite
         in="flood"
         in2="SourceGraphic"
         operator="out"
         result="composite1"
         id="feComposite147" />
      <feGaussianBlur
         in="composite1"
         stdDeviation="0.5"
         result="blur"
         id="feGaussianBlur149" />
      <feOffset
         dx="0"
         dy="-0.3"
         result="offset"
         id="feOffset151" />
      <feComposite
         in="offset"
         in2="SourceGraphic"
         operator="atop"
         result="composite2"
         id="feComposite153" />
    </filter>
  </defs>
  <sodipodi:namedview
     pagecolor="#ffffff"
     bordercolor="#666666"
     borderopacity="1"
     objecttolerance="10"
     gridtolerance="10"
     guidetolerance="10"
     inkscape:pageopacity="0"
     inkscape:pageshadow="2"
     inkscape:window-width="881"
     inkscape:window-height="480"
     id="namedview44"
     showgrid="false"
     inkscape:zoom="14.75"
     inkscape:cx="9.0847458"
     inkscape:cy="8"
     inkscape:window-x="0"
     inkscape:window-y="0"
     inkscape:window-maximized="0"
     inkscape:current-layer="svg42"
     inkscape:pagecheckerboard="0" />
  <linearGradient
     id="g0"
     x1="0%"
     y1="0%"
     x2="0%"
     y2="100%">
    <stop
       offset="0%"
       style="stop-color:#ff6040;stop-opacity:1"
       id="stop2" />
    <stop
       offset="100%"
       style="stop-color:#c00040;stop-opacity:1"
       id="stop4" />
  </linearGradient>
  <linearGradient
     id="g1"
     x1="0%"
     y1="0%"
     x2="0%"
     y2="100%">
    <stop
       offset="0%"
       style="stop-color:#b0ddff;stop-opacity:1"
       id="stop14" />
    <stop
       offset="100%"
       style="stop-color:#e7e9ec;stop-opacity:1"
       id="stop16" />
  </linearGradient>
  <linearGradient
     id="g2"
     x1="0%"
     y1="0%"
     x2="0%"
     y2="100%">
    <stop
       offset="0%"
       style="stop-color:#c0c2c5;stop-opacity:1"
       id="stop7" />
    <stop
       offset="100%"
       style="stop-color:#80a0c0;stop-opacity:1"
       id="stop9" />
  </linearGradient>
  <style
     id="style32">
    .ac-color {
      fill: url(#g0);
    }
    .ac-color1 {
      fill: url(#g1);
    }
    .ac-color2 {
      fill: url(#g2);
    }
    .ac-color3 {
      fill: #000;
      opacity: 0.35;
    }
  </style>
  <path
     d="M4 0 12 0Q16 0 16 4L16 12Q16 16 12 16L4 16Q0 16 0 12L0 4Q0 0 4 0"
     class="ac-color"
     id="path34" />
  <path
     d="M4 0 12 0Q16 0 16 4L16 5Q16 3 14 3L2 3Q0 3 0 5L0 4Q0 0 4 0"
     class="ac-color2"
     id="path40"
     style="filter:url(#filter155)" />
  <path
     d="M3.5 5.5A.5.5 90 003.5 7.5.5.5 90 003.5 5.5M12.5 5.5A.5.5 90 0012.5 7.5.5.5 90 0012.5 5.5"
     class="ac-color3"
     id="path38" />
  <path
     d="M4 6.5A1 1 90 0012 6.5Q12 6 12.5 6 13 6 13 6.5A1 1 90 013 6.5Q3 6 3.5 6 4 6 4 6.5"
     class="ac-color1"
     id="path40"
     style="filter:url(#filter65)" />
</svg>
